<?xml version="1.0" standalone="no"?><!-- Generator: Gravit.io --><svg xmlns="http://www.w3.org/2000/svg" xmlns:xlink="http://www.w3.org/1999/xlink" style="isolation:isolate" viewBox="391 311 274 274" width="274" height="274"><path d="M 216.21 306 L 304.79 306 C 308.769 306 312 309.231 312 313.21 L 312 401.79 C 312 405.769 308.769 409 304.79 409 L 216.21 409 C 212.231 409 209 405.769 209 401.79 L 209 313.21 C 209 309.231 212.231 306 216.21 306 Z" style="stroke:none;fill:#2AD0E6;stroke-miterlimit:10;"/><path d="M 410.25 311 L 646.75 311 C 657.374 311 666 319.626 666 330.25 L 666 566.75 C 666 577.374 657.374 586 646.75 586 L 410.25 586 C 399.626 586 391 577.374 391 566.75 L 391 330.25 C 391 319.626 399.626 311 410.25 311 Z" style="stroke:none;fill:#2AD0E6;stroke-miterlimit:10;"/><path d="M 215.93 306 L 301.07 306 C 304.895 306 308 309.105 308 312.93 L 308 398.07 C 308 401.895 304.895 405 301.07 405 L 215.93 405 C 212.105 405 209 401.895 209 398.07 L 209 312.93 C 209 309.105 212.105 306 215.93 306 Z" style="stroke:none;fill:#2DE5FF;stroke-miterlimit:10;"/><path d="M 409.502 311 L 636.818 311 C 647.03 311 655.32 319.291 655.32 329.502 L 655.32 556.818 C 655.32 567.03 647.03 575.32 636.818 575.32 L 409.502 575.32 C 399.291 575.32 391 567.03 391 556.818 L 391 329.502 C 391 319.291 399.291 311 409.502 311 Z" style="stroke:none;fill:#2DE5FF;stroke-miterlimit:10;"/><g transform="matrix(1,0,0,1,415,328)"><text transform="matrix(1,0,0,1,40.5,187)" style="font-family:&quot;Rubik&quot;;font-weight:700;font-size:200px;font-style:normal;fill:#b3afaf;stroke:none;">R</text></g><g transform="matrix(1,0,0,1,406.41,328)"><text transform="matrix(1,0,0,1,46.25,187)" style="font-family:&quot;Rubik&quot;;font-weight:700;font-size:200px;font-style:normal;fill:#ffffff;stroke:none;">R</text></g></svg>